<?xml version="1.0" encoding="UTF-8" standalone="no"?>
<!-- Created with Inkscape (http://www.inkscape.org/) -->

<svg
   width="144"
   height="48"
   version="1.1"
   viewBox="0 0 38.1 12.7"
   id="svg26"
   sodipodi:docname="org.penguinlauncher.PenguinLauncher.logo.svg"
   inkscape:version="1.4.2 (ebf0e940d0, 2025-05-08)"
   xml:space="preserve"
   xmlns:inkscape="http://www.inkscape.org/namespaces/inkscape"
   xmlns:sodipodi="http://sodipodi.sourceforge.net/DTD/sodipodi-0.dtd"
   xmlns="http://www.w3.org/2000/svg"
   xmlns:svg="http://www.w3.org/2000/svg"
   xmlns:rdf="http://www.w3.org/1999/02/22-rdf-syntax-ns#"
   xmlns:cc="http://creativecommons.org/ns#"
   xmlns:dc="http://purl.org/dc/elements/1.1/"><defs
     id="defs26" /><sodipodi:namedview
     id="namedview26"
     pagecolor="#ffffff"
     bordercolor="#999999"
     borderopacity="1"
     inkscape:showpageshadow="2"
     inkscape:pageopacity="0"
     inkscape:pagecheckerboard="0"
     inkscape:deskcolor="#d1d1d1"
     inkscape:zoom="3.1614584"
     inkscape:cx="45.548599"
     inkscape:cy="51.874794"
     inkscape:window-width="1920"
     inkscape:window-height="1125"
     inkscape:window-x="0"
     inkscape:window-y="0"
     inkscape:window-maximized="1"
     inkscape:current-layer="svg26" /><title
     id="title1">Penguin Launcher Logo</title><g
     fill="#14191e"
     stroke-width=".26458"
     aria-label="Penguin Launcher"
     id="g26"><path
       d="m15.226 7.258h-0.81439v3.3433h1.8812v-0.62865h-1.0668z"
       id="path19" /><path
       d="m16.521 9.2678c0 0.8382 0.51911 1.3716 1.1668 1.3716 0.39529 0 0.67628-0.18098 0.82391-0.41434v0.37624h0.81439v-2.6575h-0.81439v0.37624c-0.14288-0.23336-0.42386-0.41434-0.81915-0.41434-0.65246 0-1.1716 0.52387-1.1716 1.3621zm1.9907 0.00476c0 0.42386-0.27146 0.65722-0.58102 0.65722-0.3048 0-0.58102-0.23812-0.58102-0.66199s0.27622-0.65246 0.58102-0.65246c0.30956 0 0.58102 0.23336 0.58102 0.65722z"
       id="path20" /><path
       d="m22.541 10.601v-2.6575h-0.81439v1.443c0 0.36195-0.20002 0.56198-0.51435 0.56198-0.3048 0-0.50959-0.20002-0.50959-0.56198v-1.443h-0.80962v1.5526c0 0.70961 0.41434 1.1335 1.0287 1.1335 0.35719 0 0.64294-0.16192 0.80486-0.39052v0.36195z"
       id="path21" /><path
       d="m24.96 9.1583v1.443h0.80962v-1.5526c0-0.71438-0.40958-1.1335-1.0239-1.1335-0.35719 0-0.64294 0.15716-0.80486 0.381v-0.35242h-0.81439v2.6575h0.81439v-1.443c0-0.36195 0.20002-0.56198 0.50959-0.56198 0.30956 0 0.50959 0.20002 0.50959 0.56198z"
       id="path22" /><path
       d="m26.175 9.2726c0 0.84296 0.55245 1.3668 1.3335 1.3668 0.66675 0 1.1382-0.38576 1.2764-1.0001h-0.86678c-0.07144 0.19526-0.20002 0.3048-0.42386 0.3048-0.29051 0-0.49054-0.2286-0.49054-0.67151s0.20002-0.67151 0.49054-0.67151c0.22384 0 0.35719 0.11906 0.42386 0.3048h0.86678c-0.13811-0.63341-0.6096-1.0001-1.2764-1.0001-0.78105 0-1.3335 0.52864-1.3335 1.3668z"
       id="path23" /><path
       d="m29.218 7.0771v3.5243h0.81439v-1.443c0-0.36195 0.20002-0.56198 0.50959-0.56198 0.30956 0 0.50959 0.20002 0.50959 0.56198v1.443h0.80962v-1.5526c0-0.71438-0.40481-1.1335-1.0096-1.1335-0.36671 0-0.65722 0.15716-0.81915 0.38576v-1.224z"
       id="path24" /><path
       d="m33.599 8.5582c0.27146 0 0.50006 0.16669 0.50006 0.4572h-1.0192c0.04762-0.29528 0.25241-0.4572 0.51911-0.4572zm1.2716 1.162h-0.86678c-0.06667 0.14288-0.19526 0.25718-0.42386 0.25718-0.26194 0-0.47625-0.16192-0.50482-0.50959h1.8431c0.0095-0.080963 0.01429-0.16192 0.01429-0.23812 0-0.80962-0.54769-1.324-1.324-1.324-0.79058 0-1.343 0.52387-1.343 1.3668 0 0.84296 0.56198 1.3668 1.343 1.3668 0.66199 0 1.1335-0.40005 1.2621-0.91916z"
       id="path25" /><path
       d="m36.176 9.3678c0-0.4572 0.22384-0.59055 0.6096-0.59055h0.22384v-0.86201c-0.35719 0-0.6477 0.1905-0.83344 0.47149v-0.44291h-0.81439v2.6575h0.81439z"
       id="path26" /><text
       xml:space="preserve"
       style="font-style:normal;font-variant:normal;font-weight:600;font-stretch:normal;font-size:4.49349px;font-family:FreeSans;-inkscape-font-specification:'FreeSans, Semi-Bold';font-variant-ligatures:normal;font-variant-caps:normal;font-variant-numeric:normal;font-variant-east-asian:normal;text-align:start;writing-mode:lr-tb;direction:ltr;text-anchor:start;fill:#3dddff;fill-opacity:1;stroke-width:0.0989542;stroke-dasharray:none"
       x="14.052131"
       y="5.2006226"
       id="text1"><tspan
         sodipodi:role="line"
         id="tspan1"
         x="14.052131"
         y="5.2006226">Penguin</tspan></text></g><metadata
     id="metadata26"><rdf:RDF><cc:Work
         rdf:about=""><dc:title>Penguin Launcher Logo</dc:title><dc:date>19/10/2022</dc:date><dc:creator><cc:Agent><dc:title>Penguin Launcher</dc:title></cc:Agent></dc:creator><dc:contributor><cc:Agent><dc:title>AutiOne, Boba, ely, Fulmine, gon sawa, Pankakes, tobimori, Zeke</dc:title></cc:Agent></dc:contributor><dc:source>https://github.com/penguincre8te/PenguinLauncher</dc:source><dc:publisher><cc:Agent><dc:title>Penguin Launcher</dc:title></cc:Agent></dc:publisher><cc:license
           rdf:resource="http://creativecommons.org/licenses/by-sa/4.0/" /></cc:Work><cc:License
         rdf:about="http://creativecommons.org/licenses/by-sa/4.0/"><cc:permits
           rdf:resource="http://creativecommons.org/ns#Reproduction" /><cc:permits
           rdf:resource="http://creativecommons.org/ns#Distribution" /><cc:requires
           rdf:resource="http://creativecommons.org/ns#Notice" /><cc:requires
           rdf:resource="http://creativecommons.org/ns#Attribution" /><cc:permits
           rdf:resource="http://creativecommons.org/ns#DerivativeWorks" /><cc:requires
           rdf:resource="http://creativecommons.org/ns#ShareAlike" /></cc:License></rdf:RDF></metadata><g
     id="layer7"
     inkscape:label="penguin"
     transform="matrix(0.06014272,0,0,0.06014272,-0.06558923,-2.2173445)"><g
       inkscape:groupmode="layer"
       id="layer4"
       inkscape:label="foot"><ellipse
         style="fill:#000000;fill-opacity:1;stroke-width:0.293075"
         id="path7-2"
         cx="103.21879"
         cy="215.72067"
         rx="20.663881"
         ry="11.720777" /><ellipse
         style="fill:#ffff00;fill-opacity:1;stroke-width:0.258577"
         id="path7"
         cx="103.17348"
         cy="215.85724"
         rx="18.627937"
         ry="10.121034" /></g><g
       inkscape:label="beak"
       inkscape:groupmode="layer"
       id="layer1"><path
         id="path5"
         style="fill:#ffff00;stroke-width:0.265406"
         inkscape:transform-center-x="-2.2230317"
         inkscape:transform-center-y="1.2079733"
         d="m 139.95503,120.84166 -1.97937,-12.20589 -2.51898,-12.881482 17.53612,11.122842 z"
         sodipodi:nodetypes="ccccc" /><path
         style="fill:#000000;fill-opacity:1;stroke-width:0.264583"
         d="m 153.82227,107.31786 c 0,-0.48753 -0.91926,-0.44562 -0.95976,-0.95975 l -12.47679,13.43654 c -0.47654,1.00263 0.78526,0.54135 0.78526,0.87251"
         id="path6" /><path
         style="fill:#000000;fill-opacity:1;stroke-width:0.301884"
         d="m 152.96799,107.88796 c 0.53949,-0.10996 0.2904,-1.14066 0.85039,-1.30243 L 136.19856,95.497643 c -1.21456,-0.313128 -0.42587,1.010613 -0.79232,1.085289"
         id="path6-4" /><path
         style="fill:#000000;fill-opacity:1;stroke-width:0.245132"
         d="m 153.42036,108.08796 c 0.29396,-0.33922 -0.25539,-1.01401 0.0316,-1.40272 l -15.21468,-0.20608 c -0.87622,0.33265 0.12127,0.97798 -0.0784,1.20838"
         id="path6-4-2" /><path
         style="fill:#000000;fill-opacity:1;stroke-width:0.354903"
         d="m 140.59888,120.31414 c 0.53202,0.3099 1.1819,-0.82734 1.77355,-0.54943 l -5.22032,-23.614411 c -0.73344,-1.213042 -1.18492,0.604578 -1.54627,0.394038"
         id="path6-4-2-4" /></g><ellipse
       style="fill:#000000;fill-opacity:1;stroke-width:0.232168"
       id="path4"
       cx="103.2744"
       cy="135.76146"
       rx="39.058193"
       ry="76.431252"
       inkscape:label="penguin  body" /><g
       inkscape:groupmode="layer"
       id="layer2"
       inkscape:label="on penguin"><ellipse
         style="fill:#ffffff;fill-opacity:1;stroke-width:0.273523"
         id="path11"
         cx="103.12984"
         cy="149.0235"
         rx="17.97356"
         ry="31.235605" /><g
         inkscape:groupmode="layer"
         id="layer3"
         inkscape:label="eyes"><ellipse
           style="fill:#ffffff;fill-opacity:1;stroke-width:0.264583"
           id="path9"
           cx="111.29828"
           cy="83.658791"
           rx="10.118025"
           ry="9.8712444" /><ellipse
           style="fill:#000000;fill-opacity:1;stroke-width:0.264583"
           id="path10"
           cx="111.73014"
           cy="84.028961"
           rx="2.1593344"
           ry="2.0976393" /></g><g
         inkscape:groupmode="layer"
         id="layer5"
         inkscape:label="eyes 1" /><g
         inkscape:groupmode="layer"
         id="layer6"
         inkscape:label="eyes 2" /></g></g></svg>
